<?xml version="1.0" encoding="UTF-8" standalone="no"?>
<svg
   height="76.780891"
   width="1101.7607"
   viewBox="-105.495 -59.625 839.44069 34.335455"
   version="1.1"
   id="svg4"
   sodipodi:docname="Cloudflare-Logo.long.svg"
   inkscape:version="1.3.2 (091e20e, 2023-11-25, custom)"
   xmlns:inkscape="http://www.inkscape.org/namespaces/inkscape"
   xmlns:sodipodi="http://sodipodi.sourceforge.net/DTD/sodipodi-0.dtd"
   xmlns="http://www.w3.org/2000/svg"
   xmlns:svg="http://www.w3.org/2000/svg">
  <defs
     id="defs4" />
  <sodipodi:namedview
     id="namedview4"
     pagecolor="#ffffff"
     bordercolor="#000000"
     borderopacity="0.25"
     inkscape:showpageshadow="2"
     inkscape:pageopacity="0.0"
     inkscape:pagecheckerboard="0"
     inkscape:deskcolor="#d1d1d1"
     inkscape:zoom="0.519375"
     inkscape:cx="412.03369"
     inkscape:cy="-14.440433"
     inkscape:window-width="1920"
     inkscape:window-height="1009"
     inkscape:window-x="-8"
     inkscape:window-y="-8"
     inkscape:window-maximized="1"
     inkscape:current-layer="svg4" />
  <g
     id="g5">
    <path
       fill="#404041"
       d="m 117.34568,-70.507273 h 15.6 v 42.5 h 27.1 v 13.6 h -42.7 z m 58.8,28.2 v -0.2 c 0,-16.1 13,-29.2 30.3,-29.2 17.3,0 30.1,12.9 30.1,29 v 0.2 c 0,16.1 -13,29.2 -30.3,29.2 -17.3,0 -30.1,-12.9 -30.1,-29 z m 44.6,0 v -0.2 c 0,-8.1 -5.8,-15.1 -14.4,-15.1 -8.5,0 -14.2,6.9 -14.2,15 v 0.2 c 0,8.1 5.8,15.1 14.3,15.1 8.6,0 14.3,-6.9 14.3,-15 z m 34.9,3.3 v -31.5 h 15.8 v 31.2 c 0,8.1 4.1,11.9 10.3,11.9 6.2,0 10.3,-3.7 10.3,-11.5 v -31.6 h 15.8 v 31.1 c 0,18.1 -10.3,26 -26.3,26 -15.9,0 -25.9,-8 -25.9,-25.6 z m 76,-31.5 h 21.6 c 20,0 31.7,11.5 31.7,27.7 v 0.2 c 0,16.2 -11.8,28.2 -32,28.2 h -21.3 z m 21.9,42.3 c 9.3,0 15.5,-5.1 15.5,-14.2 v -0.2 c 0,-9 -6.2,-14.2 -15.5,-14.2 h -6.3 v 28.5 h 6.3 z m 54,-42.3 h 44.9 v 13.6 h -29.4 v 9.6 h 26.6 v 12.9 h -26.6 v 20 h -15.5 z m 66.5,0 h 15.5 v 42.5 h 27.2 v 13.6 h -42.7 z m 83.3,-0.4 h 15 l 23.9,56.5 h -16.7 l -4.1,-10 h -21.6 l -4,10 h -16.3 z m 13.7,34.4 -6.2,-15.9 -6.3,15.9 z m 45.2,-34 h 26.5 c 8.6,0 14.5,2.2 18.3,6.1 3.3,3.2 5,7.5 5,13.1 v 0.2 c 0,8.6 -4.6,14.3 -11.5,17.2 l 13.4,19.6 h -18 l -11.3,-17 h -6.8 v 17 h -15.6 z m 25.8,26.9 c 5.3,0 8.3,-2.6 8.3,-6.6 v -0.2 c 0,-4.4 -3.2,-6.6 -8.4,-6.6 h -10.2 v 13.4 z m 46.4,-26.9 h 45.1 v 13.2 h -29.7 v 8.5 h 26.9 v 12.3 h -26.9 v 8.9 h 30.1 v 13.2 h -45.5 z m -605.099996,34.8 c -2.2,4.9 -6.8,8.4 -12.8,8.4 -8.5,0 -14.300004,-7.1 -14.300004,-15.1 v -0.2 c 0,-8.1 5.700004,-15 14.200004,-15 6.4,0 11.3,3.9 13.3,9.3 h 16.399996 c -2.599996,-13.4 -14.399996,-23.3 -29.599996,-23.3 -17.300004,0 -30.300004,13.1 -30.300004,29.2 v 0.2 c 0,16.1 12.8,29 30.100004,29 14.8,0 26.4,-9.6 29.4,-22.4 z"
       id="path1" />
    <g
       id="g4"
       transform="matrix(1.0875507,0,0,1.0875507,9.2361611,1.3007211)">
      <path
         fill="#f38020"
         d="m -24.815341,-17.58542 c 0.721891,-2.367 0.446887,-4.53676 -0.756262,-6.14763 -1.100018,-1.47938 -2.956308,-2.33413 -5.190724,-2.43275 l -42.316454,-0.52601 c -0.275005,0 -0.515629,-0.1315 -0.65314,-0.32875 -0.137503,-0.19725 -0.171874,-0.46024 -0.103123,-0.72326 0.137503,-0.3945 0.550009,-0.69038 0.996896,-0.72325 l 42.694581,-0.526 c 5.053222,-0.23012 10.55333,-4.14225 12.47837,-8.942 l 2.44067,-6.08188 c 0.103131,-0.263 0.137502,-0.52599 0.0688,-0.789 -2.750063,-11.90076 -13.853401,-20.777005 -27.122414,-20.777005 -12.237735,0 -22.619188,7.561255 -26.331759,18.048375 -2.406298,-1.70949 -5.465737,-2.63 -8.7658,-2.33413 -5.878235,0.55888 -10.587709,5.06276 -11.172089,10.68439 -0.137503,1.4465 -0.0344,2.86013 0.309375,4.17512 -9.590813,0.263 -17.256586,7.75851 -17.256586,16.99639 0,0.82188 0.0688,1.64375 0.17188,2.46562 0.0688,0.3945 0.41251,0.69038 0.82501,0.69038 h 78.101534 c 0.446878,0 0.859393,-0.29588 0.996887,-0.72325 z"
         id="path3"
         style="stroke-width:0.33617" />
      <path
         fill="#faae40"
         d="m -11.340075,-43.52382 c -0.378136,0 -0.790643,0 -1.168769,0.0328 -0.275014,0 -0.515638,0.19725 -0.618761,0.46026 l -1.650036,5.49012 c -0.721891,2.36701 -0.446886,4.53676 0.756263,6.14763 1.100027,1.47938 2.956307,2.33413 5.190724,2.43276 l 9.006424,0.52599 c 0.275014,0 0.515638,0.1315 0.653149,0.32875 0.137502,0.19725 0.171874,0.49313 0.103122,0.72326 -0.137502,0.3945 -0.550009,0.69037 -0.996895,0.72325 l -9.384561,0.526 c -5.087601,0.23012 -10.553329,4.14225 -12.47837,8.942 l -0.687511,1.67662 c -0.137502,0.32876 0.103131,0.65751 0.481258,0.65751 h 32.244386 c 0.378127,0 0.721883,-0.23013 0.825014,-0.59176 0.550009,-1.90674 0.859393,-3.91212 0.859393,-5.98325 0,-12.16376 -10.381456,-22.09201 -23.13483,-22.09201"
         id="path4"
         style="stroke-width:0.33617" />
    </g>
  </g>
</svg>
