<?xml version="1.0" encoding="UTF-8" standalone="no"?>
<svg
   version="1.1"
   style="display: block;"
   viewBox="0 0 2048 2048"
   width="512"
   height="512"
   id="svg23"
   sodipodi:docname="AwesomeAI.svg"
   inkscape:version="1.3.2 (091e20e, 2023-11-25, custom)"
   xmlns:inkscape="http://www.inkscape.org/namespaces/inkscape"
   xmlns:sodipodi="http://sodipodi.sourceforge.net/DTD/sodipodi-0.dtd"
   xmlns="http://www.w3.org/2000/svg"
   xmlns:svg="http://www.w3.org/2000/svg">
  <defs
     id="defs23" />
  <sodipodi:namedview
     id="namedview23"
     pagecolor="#ffffff"
     bordercolor="#000000"
     borderopacity="0.25"
     inkscape:showpageshadow="2"
     inkscape:pageopacity="0.0"
     inkscape:pagecheckerboard="0"
     inkscape:deskcolor="#d1d1d1"
     inkscape:zoom="1.1228082"
     inkscape:cx="82.382724"
     inkscape:cy="323.74184"
     inkscape:window-width="1920"
     inkscape:window-height="1009"
     inkscape:window-x="-8"
     inkscape:window-y="-8"
     inkscape:window-maximized="1"
     inkscape:current-layer="svg23" />
  <g
     id="g23"
     transform="matrix(1.0911613,0,0,1.0911613,-93.349174,-93.349149)">
    <path
       fill="#feab45"
       d="m 1657.3759,1711.2674 c 31.4325,-3.8519 37.0407,31.4809 6.7831,36.0353 -33.8672,4.0578 -36.7379,-36.0838 -6.7831,-36.0353 z"
       id="path1"
       style="stroke-width:1.21127" />
    <path
       fill="#feab45"
       d="m 1521.1199,1632.9586 c 56.6148,-2.2651 55.9971,28.6587 28.368,33.637 -8.8908,0.6662 -19.659,2.5922 -28.3438,0.4845 -22.5902,-5.4749 -15.7586,-25.7516 -0.024,-34.1215 z"
       id="path2"
       style="stroke-width:1.21127" />
    <path
       fill="#feab45"
       d="m 210.52822,510.26789 c 10.38181,-0.39124 21.68541,-1.5589 31.85161,0.78249 22.10936,5.09218 20.17617,30.42594 3.2341,40.20697 -42.2201,5.10793 -78.61883,-21.17183 -35.08571,-40.98946 z"
       id="path3"
       style="stroke-width:1.21127" />
    <path
       fill="#feab45"
       d="m 335.58239,584.27543 c 64.36337,-1.07683 47.05551,41.04638 16.38246,42.25523 -10.28976,0.89634 -20.6316,1.06834 -30.90561,0 -15.85919,-19.09813 -10.4872,-40.12218 14.52315,-42.25523 z"
       id="path4"
       style="stroke-width:1.21127" />
    <path
       fill="#43a6fb"
       d="m 1771.4656,602.65041 c 44.0055,-3.8579 57.8019,49.49986 16.4249,64.90845 -44.805,4.80997 -59.1707,-50.08489 -16.4249,-64.90845 z"
       id="path5"
       style="fill:#ffd700;fill-opacity:1;stroke-width:1.21127" />
    <path
       fill="#43a6fb"
       d="m 416.27856,239.15731 c 46.62187,-4.02869 59.57521,55.97047 11.64033,72.94402 -46.67275,6.5869 -60.21961,-55.8239 -11.64033,-72.94402 z"
       id="path6"
       style="fill:#ffd700;fill-opacity:1;stroke-width:1.21127" />
    <path
       fill="#43a6fb"
       d="m 496.40179,1764.6966 c 47.90461,-9.5812 59.00834,52.5692 15.52125,70.6777 -52.57164,7.2919 -67.03423,-62.1625 -15.52125,-70.6777 z"
       id="path7"
       style="fill:#ffd700;fill-opacity:1;stroke-width:1.21127" />
    <path
       fill="#feab45"
       d="m 1457.6856,1711.2674 84.3166,-0.1454 c 14.8381,-0.061 31.2024,-1.5262 45.8103,0.5693 22.6024,3.2462 27.6897,37.4646 -12.5488,35.6114 l -80.2952,0.061 c -14.9834,0.085 -31.3235,1.3566 -46.1373,-0.6299 -28.9616,-3.8882 -35.1754,-35.139 8.8544,-35.466 z"
       id="path8"
       style="stroke-width:1.21127" />
    <path
       fill="#feab45"
       d="m 119.60407,584.27543 c 19.26771,-0.64926 142.39838,-2.08946 151.5774,1.94893 20.07805,8.83381 8.84956,35.92634 -8.71147,40.3063 -39.87387,0.32219 -146.35318,16.58595 -161.28575,-19.41185 2.88404,-11.73844 6.49121,-18.18604 18.41982,-22.84338 z"
       id="path9"
       style="stroke-width:1.21127" />
    <path
       fill="#feab45"
       d="m 1613.5036,1632.9586 c 34.4849,-1.0054 148.2961,-5.3054 180.2131,0.1332 23.7652,4.0457 18.7142,27.5323 2.3378,37.1376 -18.4235,1.1992 -173.0061,1.0781 -182.4419,-2.2045 -18.0964,-6.2744 -17.3938,-28.9736 -0.109,-35.0663 z"
       id="path10"
       style="stroke-width:1.21127" />
    <path
       fill="#feab45"
       d="m 305.6349,510.26789 c 24.20606,-0.19501 183.26791,-2.96035 194.67082,2.52672 6.70803,3.22925 9.26018,10.35516 11.61732,16.89846 -2.57638,10.939 -4.03112,17.13586 -15.52125,21.56428 -44.02611,4.25641 -137.54238,2.24691 -181.44494,-0.31978 -17.10317,-1.00051 -20.49836,-4.27095 -24.33446,-21.2445 2.53277,-9.85976 4.92988,-15.09609 15.01251,-19.42518 z"
       id="path11"
       style="stroke-width:1.21127" />
    <path
       fill="#feab45"
       d="m 296.49827,1586.9787 c 31.91824,-0.751 24.47376,43.303 24.56097,63.7129 14.63822,0.6905 42.46236,-4.7966 54.16446,4.724 9.28682,7.5462 10.93779,21.9361 2.29173,30.6452 -11.45016,11.5434 -41.30197,6.8194 -56.45619,6.989 -0.0303,22.3117 6.79039,46.634 -15.42434,60.3214 -35.9227,2.7011 -28.34014,-36.1807 -27.99129,-60.3214 -13.62318,0.024 -42.84149,3.3552 -53.04767,-5.0025 -8.88711,-7.2798 -11.2612,-22.6872 -3.01728,-31.3356 10.90024,-11.4466 41.42551,-6.0322 56.06495,-6.0201 -0.98961,-23.5229 -9.14147,-54.4224 18.85466,-63.7129 z"
       id="path12"
       style="stroke-width:1.21127" />
    <path
       fill="#feab45"
       d="m 1601.73,332.69054 c 105.9258,-8.03195 130.1634,153.70802 11.7736,177.57735 -131.8106,-4.16314 -128.0678,-168.127 -11.7736,-177.57735 z m 0,37.18848 c -68.4611,10.96444 -61.1692,98.7308 5.4992,101.01889 63.7372,-8.58671 66.4141,-97.15492 -5.4992,-101.01889 z"
       id="path13"
       style="stroke-width:1.21127" />
    <path
       fill="#131ab9"
       d="m 750.12335,286.04323 c -56.17638,20.416 -111.00825,-18.26598 -96.85575,-75.82927 20.79634,-84.58677 159.47611,-62.02198 128.64681,44.44885 16.98445,25.63899 68.16797,70.92241 91.68361,95.26413 v 131.3104 H 1002.0534 V 295.1508 c -56.36772,-22.0609 -70.53234,-96.37246 -11.81231,-127.05156 80.33401,-41.96938 146.19091,80.89119 52.76541,127.05156 v 186.08654 h 124.9064 v -131.3104 c 21.1125,-24.51736 71.1501,-74.50777 95.8601,-95.26412 -8.1761,-33.31241 -7.195,-64.50752 24.9401,-85.13306 77.1217,-49.48653 148.2597,72.38805 68.0371,116.01929 -23.0384,12.53424 -43.0607,7.08229 -66.4625,0.49419 -20.4705,16.92632 -67.5647,63.10002 -82.4997,83.83579 0.5814,37.09279 0.061,74.25704 0,111.35831 108.1424,1.64975 189.4551,87.81966 182.9021,196.10133 78.3451,-0.4409 149.3256,18.92492 165.6536,108.36405 29.8457,4.81481 24.5525,64.17926 23.3412,84.62918 l 106.7979,-0.0569 c 17.2848,-0.0351 34.9936,-1.45595 52.1937,0.0569 42.552,-102.86973 163.546,-33.60191 131.4472,43.80814 -24.4313,58.9235 -101.0201,54.1111 -131.4472,-3.6254 -18.2175,-0.019 -36.5199,-0.4154 -54.7374,0 v 208.90086 h 129.5213 c 11.9068,-58.989 92.735,-61.0966 122.3749,-13.2513 50.4252,81.4096 -86.8846,160.9296 -127.5107,54.0227 -41.4497,-0.048 -82.9479,-0.5693 -124.3855,0 l 0.2059,51.2732 c 0.109,33.3705 4.7482,52.3633 -34.8483,51.8546 -22.5175,2.3256 -46.8762,-0.1575 -69.6118,0 -0.073,30.5725 -1.3566,61.6295 0,92.1414 20.8096,-0.036 41.5709,-0.7388 62.3563,-0.9326 l 0.9084,0.9326 h 98.4038 c 41.3892,-96.7201 157.0778,-39.8993 133.8335,36.859 -20.955,69.1879 -102.7886,65.9659 -133.8335,2.3015 -61.6174,0.86 -123.3802,0.012 -185.0097,0 -7.0739,155.7332 -61.7991,164.6967 -204.6202,164.7088 l -143.9355,-0.012 c 0.024,40.6381 -1.0781,81.4822 0,122.0962 28.8888,18.7989 53.4898,56.0092 82.4997,78.6116 56.518,-31.6264 124.3614,29.9911 96.6596,88.0352 -41.1833,86.2547 -166.017,21.597 -123.1743,-57.3174 -21.7666,-17.3091 -67.371,-63.8704 -87.5023,-86.8845 -16.764,-19.1745 -8.6001,-43.2667 -8.4184,-66.8138 0.206,-25.7517 -1.611,-52.1089 0.061,-77.7273 h -124.9068 v 200.7078 c 63.2527,17.624 61.7386,107.5973 -1.078,126.5416 -88.7826,26.7812 -129.73571,-106.81 -39.8751,-133.1915 v -194.058 H 877.25485 c -0.52448,44.5505 -0.008,89.1738 0,133.7365 -5.55489,13.9054 -81.2909,89.4767 -95.34044,97.6891 14.67698,125.1487 -105.55148,116.6698 -129.08529,53.3808 -22.75375,-61.1935 36.39752,-112.7331 105.68108,-79.4231 18.64027,-26.0182 56.25875,-59.9943 79.73684,-83.2871 0.42637,-40.6866 0.0521,-81.4096 0,-122.0962 l -165.56153,-0.085 c -52.90958,0.012 -96.23679,7.7521 -138.21101,-31.3357 -42.5314,-39.6086 -42.99289,-73.4878 -44.81465,-127.5227 H 302.72663 c -43.41442,96.8412 -164.52105,23.1716 -125.82454,-52.4239 29.98989,-58.5892 109.13321,-47.3728 128.73281,12.2945 61.16924,1.5504 122.80604,0.036 184.02495,0 1.45111,-32.1714 0.023,-64.6941 0,-96.926 l -99.23469,0.1816 c -34.94278,0.315 -31.5924,-23.9226 -31.41555,-51.9272 l 0.1938,-51.3822 c -28.68535,3.9851 -89.66564,-0.012 -121.0388,0 -31.50156,92.3353 -162.471578,41.0016 -130.49521,-43.2666 21.60668,-56.9419 103.38572,-58.7225 130.49521,5.051 40.30024,-0.751 80.71797,0.2665 121.0388,0 0.66136,-70.3749 -2.07612,-141.15435 0,-211.45665 -17.84204,-0.24951 -35.72163,-0.01 -53.56851,0 -50.27023,89.63895 -158.48529,22.71869 -129.30089,-49.24428 26.04719,-64.2265 105.37099,-56.15944 129.30089,9.06152 61.1535,1.78662 122.81089,-0.08 184.02495,0 l -0.11386,-60.94012 C 489.72284,703.4004 559.64474,677.10491 653.14163,677.33867 648.62238,562.14184 725.81191,492.82921 833.61393,481.23734 V 369.87903 c -9.50243,-15.40738 -67.89545,-72.09251 -83.49058,-83.8358 z M 595.29975,1518.3117 c 0.61048,-0.6057 0.89755,-1.4657 1.30575,-2.2166 -13.47419,-14.826 -18.64148,-35.8416 -5.67239,-52.9932 14.20217,-18.7868 56.42833,-11.18 77.41726,-11.18 l 636.31513,0.109 c 49.9529,0.036 111.0252,8.2851 130.9386,-51.5276 7.7884,-23.4017 3.8639,-102.2919 3.8639,-131.5805 l -0.012,-412.05178 c -0.036,-21.73992 -5.8141,-57.66867 8.4426,-76.26533 16.9457,-22.08998 40.4928,-5.60456 61.145,-9.87551 -24.1891,-58.13622 -77.1944,-54.08209 -128.5523,-53.62544 l -615.37593,0.0424 c -37.50462,-0.01 -153.91152,-6.66926 -185.40702,6.48031 -69.06068,28.83312 -50.40588,131.68709 -50.41194,194.26999 l -0.001,413.01836 c 0.001,63.6039 -15.27898,164.8783 66.00465,187.3959 z M 818.40156,522.27161 c -80.91541,15.5915 -128.00967,73.5751 -125.2722,155.06706 59.27119,1.50562 118.94088,10e-4 178.26536,-10e-4 l 357.71168,10e-4 h 122.6171 c -1.1386,-117.92098 -69.8904,-155.23301 -177.9602,-155.15185 l -83.287,0.0666 c -90.63951,0.0799 -181.44614,-1.24397 -272.07474,0.0182 z M 405.12032,910.51464 c -1.4717,0.27381 -3.1057,0.041 -3.91483,1.462 -2.66359,4.6756 -1.27305,281.45976 -1.10226,311.24486 h 86.1905 l 2.56063,-0.8842 c 2.96883,-10.5986 0.75341,-64.0884 0.75704,-79.3868 l 0.0485,-232.43586 z m 1174.56458,0 c -0.86,27.445 0,55.0245 0,82.4913 l -0.048,133.96786 c 0.2423,29.8337 -2.3014,67.6133 0.048,96.2477 h 63.2647 V 910.51464 c -20.8217,-1.2706 -42.3581,-0.1041 -63.2647,0 z m -23.3412,0 v 312.70686 c 7.7279,-0.024 15.6254,-0.3997 23.3412,0 -2.3499,-28.6344 0.1938,-66.414 -0.048,-96.2477 l 0.048,-133.96786 c 0,-27.4668 -0.86,-55.0463 0,-82.4913 z m -235.4592,880.22426 c -40.4686,13.4088 -35.0543,59.4008 6.7831,59.2918 36.7015,-10.9136 29.8942,-61.7264 -6.7831,-59.2918 z m -300.2986,0 c -40.74361,8.1398 -38.35011,55.5853 4.4696,59.2918 35.0057,-6.6862 30.8026,-56.5059 -4.4696,-59.2918 z m 853.5229,-676.9195 c -40.7108,3.9124 -31.8685,56.736 5.1237,58.2138 33.6249,-13.215 35.5872,-60.1276 -5.1237,-58.2138 z M 715.14423,1790.7389 c -17.35874,3.973 -23.92626,14.4626 -27.28148,30.9238 5.06433,16.6671 13.02481,25.3883 30.04682,28.368 41.16509,-11.2285 34.42678,-59.3766 -2.76534,-59.2918 z M 1801.4204,859.34565 c -39.6692,17.8808 -23.8136,64.01089 12.04,56.88989 12.5246,-6.45249 18.7748,-14.66494 22.4328,-28.02283 -4.1183,-18.99276 -13.7964,-31.56214 -34.4728,-28.86706 z m 0,485.74195 c -32.0018,19.1987 -24.068,67.262 15.8071,55.2825 34.5939,-12.8637 20.3372,-61.1208 -15.8071,-55.2825 z M 1020.5859,198.07218 c -37.04671,8.75871 -37.49131,57.2968 4.4696,56.59064 16.1462,-1.31788 21.282,-11.51799 24.8674,-25.94547 -4.1062,-17.19522 -11.6524,-27.3263 -29.337,-30.64517 z M 171.71179,1113.8194 c -38.17688,7.4009 -38.37432,49.8681 0,58.2138 34.77199,-9.7871 38.24471,-54.4588 0,-58.2138 z m 66.45282,-254.47374 c -18.80379,1.84113 -23.75426,11.80021 -27.63639,28.86705 4.96258,15.62904 15.96941,25.43313 31.98849,28.02283 32.29252,-10.7816 35.59566,-57.71356 -4.3521,-56.88988 z M 717.90957,198.07218 c -37.16062,8.60487 -30.05772,58.23675 4.27458,56.59064 35.32554,-12.02067 33.51832,-54.36676 -4.27458,-56.59064 z M 233.12329,1349.8237 c -34.55881,13.2029 -25.82432,60.3698 9.39342,55.0523 35.78946,-12.4639 27.87259,-57.7776 -9.39342,-55.0523 z M 1320.8845,198.07218 c -32.1835,12.64204 -31.8444,53.25599 6.7831,56.59064 33.0314,-8.8108 29.8821,-58.24525 -6.7831,-56.59064 z m 235.4592,1065.24252 v 92.1414 c 28.586,0.012 58.1289,1.6353 86.6059,0 l -0.9084,-0.9326 c -20.7854,0.1938 -41.5467,0.8963 -62.3563,0.9326 -1.3566,-30.5119 -0.073,-61.5689 0,-92.1414 22.7356,-0.1575 47.0943,2.3256 69.6118,0 -30.5846,-1.9139 -62.2473,0.024 -92.953,0 z m 0,-477.61198 v 84.62917 c 7.8369,-0.31615 15.5043,-0.45544 23.3412,0 1.2113,-20.44991 6.5045,-79.81436 -23.3412,-84.62917 z"
       id="path14"
       style="fill:#ffd700;fill-opacity:1;stroke-width:1.21127" />
    <path
       fill="#b5d1fa"
       d="m 595.29975,1518.3117 c 0.61048,-0.6057 0.89755,-1.4657 1.30575,-2.2166 -13.47419,-14.826 -18.64148,-35.8416 -5.67239,-52.9932 14.20217,-18.7868 56.42833,-11.18 77.41726,-11.18 l 636.31513,0.109 c 49.9529,0.036 111.0252,8.2851 130.9386,-51.5276 7.7884,-23.4017 3.8639,-102.2919 3.8639,-131.5805 l -0.012,-412.05178 c -0.036,-21.73992 -5.8141,-57.66867 8.4426,-76.26533 16.9457,-22.08998 40.4928,-5.60456 61.145,-9.87551 12.6336,29.91358 5.9231,105.62658 5.911,138.90026 v 413.53316 c 0.012,30.6573 6.1048,112.3819 -5.0995,139.151 -11.931,28.5254 -40.6502,55.0038 -72.9428,55.7427 -72.5673,1.6716 -145.498,0.2544 -218.1016,0.2544 l -568.09878,0.024 c -17.1395,0.073 -38.85156,4.0093 -55.41207,-0.024 z"
       id="path15"
       style="fill:#fff0a0;fill-opacity:1;stroke:#fff0a0;stroke-width:2.012;stroke-dasharray:none;stroke-opacity:1" />
    <path
       fill="#131ab9"
       d="m 1110.3654,1263.3147 c 26.0302,11.5313 22.8446,33.4311 15.371,57.4264 -35.7325,85.0918 -142.51821,101.2744 -196.27087,25.7516 -17.6664,-24.8311 -30.81355,-63.943 0.01,-83.178 30.14857,9.569 16.42606,32.1835 28.91913,54.7979 29.67983,53.7078 115.81454,46.3554 130.04704,-14.2445 4.2758,-18.1691 0.9811,-30.0033 20.3978,-39.8025 z"
       id="path16"
       style="fill:#ffd700;fill-opacity:1;stroke-width:1.21127" />
    <path
       fill="#131ab9"
       d="m 869.63353,977.10434 c 80.79791,-4.1655 96.15446,116.17186 7.62132,131.31276 -88.19757,1.9138 -96.1738,-121.70366 -7.62132,-131.31276 z"
       id="path17"
       style="fill:#ffd700;fill-opacity:1;stroke-width:1.21127" />
    <path
       fill="#43a6fb"
       d="m 869.63353,1016.7238 c 34.00283,-2.3619 36.29698,38.3247 7.62132,51.2974 -18.61846,2.689 -26.80545,-12.04 -31.13454,-27.835 4.3194,-12.9364 10.50052,-18.6052 23.51322,-23.4624 z"
       id="path18"
       style="fill:#131ab9;fill-opacity:1;stroke-width:1.21127" />
    <path
       fill="#131ab9"
       d="m 862.33682,888.21271 c 47.58726,-4.25761 94.38718,17.81424 125.58227,53.15063 37.02741,41.9379 37.02741,74.68216 36.93051,126.79106 -0.024,18.3629 8.7211,70.593 -23.7531,65.9538 -26.39841,-3.767 -13.50321,-94.9637 -19.66131,-122.8472 -9.7278,-44.04666 -53.72237,-76.02906 -96.6329,-81.90136 l -2.04826,-0.046 c -162.8495,-3.5042 -109.90963,180.13306 -131.00878,198.73826 -13.23436,11.6645 -25.18235,3.5369 -33.83568,-8.6364 -6.9418,-116.5619 13.35306,-211.40936 144.42725,-231.20279 z"
       id="path19"
       style="fill:#ffd700;fill-opacity:1;stroke-width:1.21127" />
    <path
       fill="#131ab9"
       d="m 693.12936,1183.1042 c 26.14652,-1.8654 53.65209,-0.048 79.91732,-0.012 l 422.59222,-0.012 c 46.9126,-0.024 94.0311,-1.0175 140.8952,0.1453 17.6967,0.4482 24.7584,2.4953 31.1418,19.7801 -3.5611,9.8234 -6.6256,15.0561 -15.9524,20.2161 -21.6576,2.2046 -46.4281,0.073 -68.4733,0.036 l -442.86042,-0.048 c -22.47152,0 -139.50706,5.3054 -152.93402,-3.2583 -13.9914,-8.915 -12.12968,-34.2184 5.6736,-36.8469 z"
       id="path20"
       style="fill:#ffd700;fill-opacity:1;stroke-width:1.21127" />
    <path
       fill="#131ab9"
       d="m 1146.5945,834.85009 c 22.0694,-1.40022 138.3757,-1.73454 154.0859,2.61999 14.717,4.07836 30.185,18.73233 32.2683,34.55881 2.6164,19.96782 2.5316,150.83611 -2.2772,166.35251 -5.0873,16.4006 -19.2713,28.2832 -33.7339,36.3745 -17.3454,3.0039 -114.0534,1.4051 -135.1053,-0.3392 -64.7546,-5.3901 -51.2731,-81.39985 -51.4427,-126.83106 -0.1575,-40.4589 -12.7305,-96.63895 36.2049,-112.73555 z"
       id="path21"
       style="fill:#ffd700;fill-opacity:1;stroke-width:1.21127" />
    <path
       fill="#feab45"
       d="m 1293.8731,881.5131 c 2.4225,30.30615 2.4952,127.6524 -2.362,150.4485 -9.6902,10.4412 -127.8134,4.6513 -141.1858,0.4119 l -0.1091,-86.22685 c -0.024,-14.3766 -0.9205,-29.3721 0.1091,-43.67484 1.3566,8.83744 0.2785,18.89344 0.1816,27.85444 l -0.1816,53.2512 h 120.7638 c -0.012,-18.6258 -2.6527,-60.0367 3.5611,-75.8293 5.6566,-14.37304 18.5567,-4.85124 19.2229,-26.23505 z"
       id="path22"
       style="fill:#4545fe;fill-opacity:1;stroke:#4545fe;stroke-width:1.21127;stroke-opacity:1" />
    <path
       fill="#fcc40f"
       d="m 1150.3253,873.33464 89.0042,-0.11992 c 15.3105,-0.0666 50.1225,-6.69591 54.5436,8.29839 -0.6662,21.3838 -13.5663,11.862 -19.2229,26.23504 -6.2138,15.7926 -3.5732,57.2035 -3.5611,75.8293 h -120.7638 l 0.1816,-53.2512 c 0.097,-8.961 1.175,-19.017 -0.1816,-27.85444 z"
       id="path23"
       style="fill:#0f0ffc;fill-opacity:1;stroke-width:1.21127" />
  </g>
</svg>
